<?xml version="1.0" encoding="utf-8"?>
<!-- Generator: Adobe Illustrator 23.0.6, SVG Export Plug-In . SVG Version: 6.00 Build 0)  -->
<svg version="1.1" xmlns="http://www.w3.org/2000/svg" xmlns:xlink="http://www.w3.org/1999/xlink" x="0px" y="0px"
	 viewBox="0 0 371 575" style="enable-background:new 0 0 371 575;" xml:space="preserve">
<style type="text/css">
	.st0{fill:#FFFFFF;}
	.st1{fill:none;stroke:#000000;stroke-width:25;stroke-miterlimit:10;}
</style>
<g id="Layer_1">
	<g>
		<path class="st0" d="M113.28,410.65c-1.71,0-2.29-0.37-2.94-0.88c-3.8-3.07-1.11-15.18,1.75-28c4.1-18.41,9.2-41.32,4.74-68.3
			c-7.08-42.82-33.13-64.7-56.1-83.99c-18.03-15.14-33.6-28.21-37.43-49.21c-4.93-26.98,8.88-64.78,35.18-96.32
			c33.09-39.68,79.02-62.44,126-62.44c47.65,0.01,94.06,23.23,127.33,63.71c25.79,31.37,39.1,68.61,33.92,94.87
			c-4.77,24.22-26.38,40.29-49.25,57.31c-28.03,20.85-59.81,44.49-62.46,87.34c-1.49,24.03,6.67,44.23,13.22,60.46
			c3,7.42,7.52,18.64,6.41,21.47c0,0-0.02,0.02-0.05,0.05c-0.17,0.03-0.52,0.09-1.16,0.09c-3.06,0-8.1-1.14-13.94-2.46
			c-11.53-2.6-27.31-6.17-48.91-6.34c-0.54,0-1.08-0.01-1.62-0.01c-26.71,0-45.29,5.29-58.87,9.16
			C122.52,409.03,116.83,410.65,113.28,410.65z"/>
		<path d="M184.5,34c43.88,0.01,86.77,21.56,117.66,59.15c23.15,28.16,35.73,62.12,31.32,84.52c-3.84,19.49-22.66,33.49-44.45,49.69
			c-28.72,21.36-64.46,47.95-67.48,96.6c-1.66,26.85,7.45,49.43,14.1,65.92c0.15,0.37,0.3,0.74,0.45,1.13
			c-11.52-2.52-26.57-5.34-46.4-5.5c-0.58,0-1.15-0.01-1.72-0.01c-28.45,0-48.81,5.8-62.29,9.63c-1.24,0.35-2.55,0.73-3.86,1.09
			c0.7-3.86,1.68-8.26,2.46-11.73c4.11-18.44,9.73-43.69,4.87-73.06c-7.84-47.38-36.98-71.86-60.4-91.53
			c-18.69-15.7-30.29-26.12-33.17-41.89c-4.22-23.11,8.83-57.69,32.47-86.05c14.29-17.14,31.81-31.45,50.67-41.37
			c20.9-11,43.02-16.58,65.74-16.58H184.5 M184.48,9C75.29,9.01-0.66,118.62,11,182.5c9.99,54.73,81.68,61.54,93.5,133
			c8.41,50.85-21.07,88.63-2,104c3.26,2.63,6.76,3.65,10.78,3.65c14.16,0,34.86-12.66,74.7-12.66c0.5,0,1.01,0,1.51,0.01
			c32.62,0.26,51.21,8.8,62.95,8.8c4.08,0,7.33-1.03,10.05-3.8c14.69-14.93-18.65-47.19-16-90c4.33-69.94,99.36-81.42,111.5-143
			C370.49,119.12,293.94,9.01,184.5,9C184.49,9,184.49,9,184.48,9L184.48,9z"/>
	</g>
	<g>
		<line class="st1" x1="120" y1="446.5" x2="251" y2="444.5"/>
	</g>
	<line class="st1" x1="98.5" y1="483.5" x2="277.5" y2="479.5"/>
	<line class="st1" x1="123" y1="516.5" x2="246" y2="516.5"/>
	<path class="st1" d="M187.5,62.5c-8.11,0.09-43.13,1.38-72,29c-35.14,33.62-32.47,78.78-32,85"/>
	<path class="st1" d="M136.5,522.5c7.16,20.02,25.95,33.59,47,34c21.76,0.43,41.59-13.3,49-34"/>
</g>
<g id="Layer_2">
</g>
</svg>
