<?xml version="1.0" encoding="utf-8"?>
<!-- Generator: Adobe Illustrator 23.0.6, SVG Export Plug-In . SVG Version: 6.00 Build 0)  -->
<svg version="1.1" id="Layer_1" xmlns="http://www.w3.org/2000/svg" xmlns:xlink="http://www.w3.org/1999/xlink" x="0px" y="0px"
	 viewBox="0 0 512 512" style="enable-background:new 0 0 512 512;" xml:space="preserve">
<style type="text/css">
	.st0{opacity:0.1;fill:#FFFFFF;}
</style>
<path class="st0" d="M448.29,356.23L512,292.52l-63.71-63.71l10.27-10.27c17.76-17.76,17.76-46.66,0-64.42
	c-8.61-8.6-20.05-13.34-32.21-13.34c-12.16,0-23.61,4.74-32.21,13.34l-10.27,10.27l-63.71-63.71l-48.84,48.84V87.07h-90.11V72.56
	c0-25.12-20.43-45.55-45.55-45.55c-25.12,0-45.55,20.43-45.55,45.55v14.52H0v120.14h44.55c8.56,0,15.52,6.96,15.52,15.52
	c0,8.56-6.96,15.52-15.52,15.52H0v120.14h120.14v-42.55c0-8.56,6.96-15.52,15.52-15.52c8.56,0,15.52,6.96,15.52,15.52v42.55h118.65
	c-0.01,3.96-1.52,7.92-4.54,10.94l-30.09,30.09l84.95,84.95l63.71-63.71l8.85,8.85c8.61,8.6,20.04,13.34,32.21,13.34
	s23.61-4.74,32.21-13.34c17.76-17.76,17.76-46.66,0-64.42L448.29,356.23z M241.28,238.25v90.11h-60.07v-12.52
	c0-25.12-20.43-45.55-45.55-45.55c-25.12,0-45.55,20.44-45.55,45.55v12.52H30.04v-60.07h14.52c25.12,0,45.55-20.43,45.55-45.55
	c0-25.12-20.44-45.55-45.55-45.55H30.04v-60.07h90.11V72.56c0-8.56,6.96-15.52,15.52-15.52c8.56,0,15.52,6.96,15.52,15.52v44.55
	h90.11v90.11h42.55c8.56,0,15.52,6.96,15.52,15.52c0,8.56-6.96,15.52-15.52,15.52H241.28z M435.9,408.26
	c-6.05,6.05-15.89,6.05-21.95,0l-30.09-30.09l-63.71,63.71l-42.48-42.47l8.85-8.85c17.76-17.76,17.76-46.66,0-64.42
	c-4.38-4.38-9.57-7.78-15.21-10.05v-47.81h12.51c25.12,0,45.55-20.43,45.55-45.55c0-24.37-19.23-44.33-43.32-45.5l34.09-34.09
	l63.71,63.71l31.5-31.5c2.93-2.93,6.83-4.55,10.97-4.55s8.04,1.61,10.97,4.55c6.05,6.05,6.05,15.89,0,21.95l-31.5,31.5l63.71,63.71
	l-63.71,63.71l30.09,30.09C441.95,392.37,441.95,402.21,435.9,408.26z"/>
</svg>
