<svg height="512pt" viewBox="-6 0 512 512.00051" width="512pt" xmlns="http://www.w3.org/2000/svg"><path d="m497.691406 261.621094c0 138.28125-109.03125 247.3125-247.3125 247.3125-81.90625 0-154.625-36.261719-200.304687-97.0625-31.441407-41.851563-50.074219-93.875-50.074219-150.25 0-138.28125 112.097656-250.378906 250.378906-250.378906 77.707032 0 147.144532 35.398437 193.070313 90.953124 35.800781 43.300782 54.242187 98.851563 54.242187 159.425782zm0 0" fill="#c0fbff"/><path d="m417.980469 122.636719v122.632812c0 11.289063-9.152344 20.441407-20.4375 20.441407h-61.320313c-11.289062 0-20.4375-9.152344-20.4375-20.441407v-122.632812c0-11.289063 9.148438-20.441407 20.4375-20.441407h61.320313c11.285156 0 20.4375 9.152344 20.4375 20.441407zm36.386719-118.148438c-5.984376-5.984375-15.691407-5.984375-21.675782 0l-45.773437 45.773438-18.066407-18.066407c-5.984374-5.988281-15.691406-5.988281-21.675781 0-5.988281 5.988282-5.988281 15.691407 0 21.679688l28.90625 28.902344c2.992188 2.996094 6.914063 4.492187 10.835938 4.492187s7.847656-1.496093 10.839843-4.492187l56.609376-56.609375c5.988281-5.984375 5.988281-15.691407 0-21.679688zm0 0" fill="#02cc69"/><path d="m470.0625 265.710938h-92.960938c-11.289062 0-20.4375-9.152344-20.4375-20.441407v-122.632812c0-11.289063 9.148438-20.441407 20.4375-20.441407h66.347657c30.078125 36.386719 50.070312 81.417969 55.691406 130.808594.011719.09375.023437.191406.03125.285156 1.898437 17.308594-11.699219 32.421876-29.109375 32.421876zm-82.144531-194.769532c2.992187 2.992188 6.917969 4.488282 10.839843 4.488282 3.921876 0 7.847657-1.496094 10.839844-4.488282l44.769532-44.773437c5.988281-5.984375 5.988281-15.691407 0-21.675781-5.984376-5.988282-15.691407-5.988282-21.679688 0l-45.769531 45.769531-18.066407-18.066407c-3.800781-3.800781-9.097656-5.179687-13.992187-4.15625-1.023437 4.898438.351563 10.195313 4.152344 13.996094zm0 0" fill="#54d680"/><path d="m285.125 253.445312v122.636719c0 11.285157-9.148438 20.4375-20.4375 20.4375h-61.316406c-11.289063 0-20.441406-9.152343-20.441406-20.4375v-122.636719c0-11.289062 9.152343-20.4375 20.441406-20.4375h61.316406c11.289062 0 20.4375 9.148438 20.4375 20.4375zm-42.921875-124.679687c10.160156 0 18.394531-8.234375 18.394531-18.394531s-8.234375-18.394532-18.394531-18.394532-18.394531 8.234376-18.394531 18.394532 8.234375 18.394531 18.394531 18.394531zm0 12.265625c-8.464844 0-15.328125 6.863281-15.328125 15.328125v40.878906c0 8.464844 6.863281 15.328125 15.328125 15.328125s15.328125-6.863281 15.328125-15.328125v-40.878906c0-8.464844-6.863281-15.328125-15.328125-15.328125zm0 0" fill="#f5c02c"/><path d="m500.757812 261.621094c0 34.675781-7.046874 67.703125-19.792968 97.730468-9.59375 22.613282-31.941406 37.167969-56.503906 37.167969h-180.214844c-11.285156 0-20.4375-9.152343-20.4375-20.4375v-122.636719c0-11.289062 9.152344-20.4375 20.4375-20.4375h254.875c1.070312 9.390626 1.636718 18.933594 1.636718 28.613282zm-252.421874-133.921875c7.140624-2.53125 12.261718-9.320313 12.261718-17.328125 0-8.003906-5.121094-14.796875-12.261718-17.324219-7.140626 2.527344-12.265626 9.320313-12.265626 17.324219 0 8.007812 5.125 14.796875 12.265626 17.328125zm0 14.613281c-5.414063 2.367188-9.199219 7.761719-9.199219 14.046875v40.878906c0 6.285157 3.785156 11.679688 9.199219 14.046875 5.410156-2.367187 9.195312-7.761718 9.195312-14.046875v-40.878906c0-6.285156-3.785156-11.679687-9.195312-14.046875zm0 0" fill="#ffcf48"/><path d="m142.050781 378.128906v55.925782c0 24.875-28.777343 38.574218-48.183593 23.011718-16.417969-13.167968-31.140626-28.359375-43.792969-45.195312v-33.742188c0-11.285156 9.152343-20.4375 20.441406-20.4375h51.097656c11.289063 0 20.4375 9.148438 20.4375 20.4375zm0 0" fill="#ff393a"/><path d="m79.136719 248.882812c-6.582031-3.863281-8.632813-12.496093-4.878907-19.144531 5.539063-9.804687 14.925782-17.027343 25.84375-19.859375 11.253907-2.921875 22.882813-1.105468 32.746094 5.113282 17.734375 11.179687 24.394532 33.925781 15.492188 52.90625-5.394532 11.5-15.355469 19.609374-27.082032 22.679687-6.339843 1.660156-13.082031.683594-18.835937-2.460937-11.941406-6.53125-6.785156-24.875 6.800781-24.03125.109375.003906.21875.011718.328125.019531 5.796875.417969 11.144531-2.726563 13.625-8.011719 2.910157-6.207031.648438-13.933594-5.152343-17.585938-3.472657-2.195312-7.582032-2.753906-11.503907-1.566406-3.53125 1.070313-6.429687 3.605469-8.25 6.8125-3.808593 6.71875-12.402343 9.074219-19.132812 5.128906zm15.90625 69.96875c0 10.160157 8.234375 18.394532 18.394531 18.394532 10.15625 0 18.394531-8.234375 18.394531-18.394532 0-10.160156-8.238281-18.394531-18.394531-18.394531-10.160156 0-18.394531 8.234375-18.394531 18.394531zm16.351562 38.832032c-11.289062 0-20.441406 9.152344-20.441406 20.441406v76.566406c43.304687 35.796875 98.851563 57.308594 159.425781 57.308594 104.246094 0 193.597656-63.710938 231.273438-154.316406zm0 0" fill="#ff6466"/><path d="m88.160156 229.738281c-3.753906 6.648438-1.703125 15.28125 4.878906 19.140625.027344.019532.054688.027344.082032.042969-4.175782 2.40625-9.492188 2.59375-13.984375-.042969-6.582031-3.863281-8.632813-12.496094-4.878907-19.140625 5.539063-9.804687 14.925782-17.027343 25.84375-19.863281 5.832032-1.511719 11.761719-1.742188 17.5-.757812-1.203124.203124-2.402343.449218-3.597656.757812-10.917968 2.835938-20.304687 10.058594-25.84375 19.863281zm20.78125 89.113281c0-7.699218 4.734375-14.285156 11.445313-17.027343-2.144531-.878907-4.488281-1.367188-6.953125-1.367188-10.15625 0-18.394532 8.234375-18.394532 18.394531 0 10.160157 8.238282 18.394532 18.394532 18.394532 2.460937 0 4.808594-.492188 6.953125-1.367188-6.710938-2.746094-11.445313-9.328125-11.445313-17.027344zm0 0" fill="#ff393a"/></svg>